<?xml version="1.0" encoding="utf-8"?>
<!-- Generator: Adobe Illustrator 26.2.1, SVG Export Plug-In . SVG Version: 6.00 Build 0)  -->
<svg version="1.1" id="图层_1" xmlns="http://www.w3.org/2000/svg" xmlns:xlink="http://www.w3.org/1999/xlink" x="0px" y="0px"
	 viewBox="0 0 1024 470" style="enable-background:new 0 0 1024 470;" xml:space="preserve">
<style type="text/css">
	.st0{fill-rule:evenodd;clip-rule:evenodd;fill:url(#路径-4_00000051366678589262404590000003868679484905694384_);}
	.st1{fill-rule:evenodd;clip-rule:evenodd;fill:url(#形状结合_00000134938274755830103650000003548518223023458696_);}
	.st2{fill-rule:evenodd;clip-rule:evenodd;fill:#7A7A7A;}
	.st3{fill-rule:evenodd;clip-rule:evenodd;fill:url(#SVGID_1_);}
	.st4{fill-rule:evenodd;clip-rule:evenodd;fill:url(#SVGID_00000168807126677743268150000002530338357271078826_);}
	.st5{fill-rule:evenodd;clip-rule:evenodd;fill:url(#矩形_00000043459593732328395740000007149172442049340802_);}
	.st6{fill-rule:evenodd;clip-rule:evenodd;fill:#B4B4B4;}
	.st7{fill-rule:evenodd;clip-rule:evenodd;fill:url(#SVGID_00000181067356758790298050000008601972499727415463_);}
	.st8{fill-rule:evenodd;clip-rule:evenodd;fill:url(#SVGID_00000178168280626149294880000009737286891820839331_);}
	.st9{fill:#979797;}
	.st10{fill:url(#SVGID_00000139288891945033363750000000369755426613247673_);}
	.st11{fill:url(#矩形备份-14_00000084492874925588318000000004837515003518111920_);}
	.st12{fill-rule:evenodd;clip-rule:evenodd;fill:url(#SVGID_00000127755837386014122100000016059787240512673942_);}
	.st13{fill-rule:evenodd;clip-rule:evenodd;fill:url(#SVGID_00000057870529880627062280000016607620635412884100_);}
	.st14{fill:none;stroke:url(#形状结合_00000099647242932606807240000014224357955858950317_);stroke-width:6.6087;}
	.st15{fill-rule:evenodd;clip-rule:evenodd;fill:url(#椭圆形备份-6_00000110453546138748701460000002596533183918249882_);}
	.st16{fill:url(#形状结合备份_00000103266966143598844860000017593942581898290576_);}
	.st17{fill-rule:evenodd;clip-rule:evenodd;fill:url(#形状结合备份_00000007411432359317028330000014987663120219708854_);}
	.st18{fill-rule:evenodd;clip-rule:evenodd;fill:url(#SVGID_00000132795923489987424770000016442478554397583248_);}
</style>
<g>
	
		<linearGradient id="路径-4_00000123425786861463512310000012749661986965073039_" gradientUnits="userSpaceOnUse" x1="962.771" y1="17.5387" x2="963.2899" y2="17.5428" gradientTransform="matrix(741.9 0 0 66.5 -714216.3125 -741.1094)">
		<stop  offset="0" style="stop-color:#3A58DD;stop-opacity:0"/>
		<stop  offset="1" style="stop-color:#4164FF;stop-opacity:0.8469"/>
	</linearGradient>
	
		<path id="路径-4" style="fill-rule:evenodd;clip-rule:evenodd;fill:url(#路径-4_00000123425786861463512310000012749661986965073039_);" d="
		M49.8,403.7v21l-38.5,12l265.2,9.8l182,6.2l118.3,3.7l71.6,1.8l39.2,0.5l18.4-0.1l6.8-0.3l1.5-0.3l2.3-1.3l3.8-1.5l27.3-7.3l5-2.1
		l0.5-0.6l-0.2-0.6l-1-0.6l-7.4-2.7l-10.1-2.6l-6.4-1.2l-30.6-4.8l-31.1-4l-98.1-11.5l-188.7-11.6l-54.5-3l-136.5-6.8l-82.6-3.6
		h-5.3l-6.6,0.6l-8.1,1.3l-10,2.2l-11.9,3.1L49.8,403.7z"/>
</g>
<linearGradient id="形状结合_00000096762332225340001100000014392342793580200076_" gradientUnits="userSpaceOnUse" x1="957.8275" y1="25.4158" x2="958.0501" y2="26.5419" gradientTransform="matrix(148 0 0 274.5 -141472 -6861.3672)">
	<stop  offset="0" style="stop-color:#3A5EDF"/>
	<stop  offset="0.5441" style="stop-color:#3A5EDF"/>
	<stop  offset="1" style="stop-color:#B6D5FF"/>
</linearGradient>
<path id="形状结合" style="fill-rule:evenodd;clip-rule:evenodd;fill:url(#形状结合_00000096762332225340001100000014392342793580200076_);" d="
	M321,150.2l29,4.5l-81.2,164.2l80.8,8.6v-81.8l26.4,3.9v80.7l8,0.9v32.5l-8-0.9v61.9l-26.4-3v-61.8L236,347.5v-32L321,150.2z"/>
<g>
	<g>
		<path class="st2" d="M349.8,327.7l-84.5-9l18.2-8l66.3,7V327.7z"/>
	</g>
	
		<linearGradient id="SVGID_1_" gradientUnits="userSpaceOnUse" x1="953.3629" y1="-15.1216" x2="952.5919" y2="-15.1317" gradientTransform="matrix(84.5 0 0 17 -80228.7031 576.3042)">
		<stop  offset="0" style="stop-color:#D9EAFF"/>
		<stop  offset="1" style="stop-color:#9BBFFE"/>
	</linearGradient>
	<path class="st3" d="M349.8,327.7l-84.5-9l18.2-8l66.3,7V327.7z"/>
</g>
<g>
	<g>
		<path class="st2" d="M764,203.5l-140-15.3l18-7.7l120.9,12.7l14.4,1.8L764,203.5z"/>
	</g>
	
		<linearGradient id="SVGID_00000114074915524587766150000000904712361385275818_" gradientUnits="userSpaceOnUse" x1="958.4827" y1="-3.6737" x2="957.7117" y2="-3.6794" gradientTransform="matrix(153.3 0 0 23 -146193.1875 276.5391)">
		<stop  offset="0" style="stop-color:#D9EAFF"/>
		<stop  offset="1" style="stop-color:#9BBFFE"/>
	</linearGradient>
	<path style="fill-rule:evenodd;clip-rule:evenodd;fill:url(#SVGID_00000114074915524587766150000000904712361385275818_);" d="
		M764,203.5l-140-15.3l18-7.7l120.9,12.7l14.4,1.8L764,203.5z"/>
</g>
<linearGradient id="矩形_00000116212573863838468040000000671238039839562123_" gradientUnits="userSpaceOnUse" x1="892.0101" y1="25.1405" x2="892.028" y2="24.1844" gradientTransform="matrix(13.3 0 0 183.6 -11481.1943 -4201.5581)">
	<stop  offset="0" style="stop-color:#CAE1FF"/>
	<stop  offset="0.3188" style="stop-color:#A5C7F9"/>
	<stop  offset="1" style="stop-color:#3258E8"/>
	<stop  offset="1" style="stop-color:#3258E8"/>
</linearGradient>
<path id="矩形" style="fill-rule:evenodd;clip-rule:evenodd;fill:url(#矩形_00000116212573863838468040000000671238039839562123_);" d="
	M376.1,249.5l13.2-8.4l-0.1,175.2l-13.2,8.4L376.1,249.5z"/>
<g>
	<g>
		<path class="st6" d="M349.7,154.5l13.8-8l-80,164.2l-18.2,8L349.7,154.5z"/>
	</g>
	
		<linearGradient id="SVGID_00000140005029146700803650000003248919207313638838_" gradientUnits="userSpaceOnUse" x1="954.7977" y1="24.3906" x2="954.4789" y2="24.522" gradientTransform="matrix(98.2 0 0 172.2 -93435.5078 -3973.9788)">
		<stop  offset="0" style="stop-color:#9BBFFE"/>
		<stop  offset="1" style="stop-color:#D9EAFF"/>
	</linearGradient>
	<path style="fill-rule:evenodd;clip-rule:evenodd;fill:url(#SVGID_00000140005029146700803650000003248919207313638838_);" d="
		M349.7,154.5l13.8-8l-80,164.2l-18.2,8L349.7,154.5z"/>
</g>
<g>
	<g>
		<path class="st6" d="M777.2,195l0.1,37.2L702.5,298l-10.7-1l72.2-64.6v-28.9L777.2,195z"/>
	</g>
	
		<linearGradient id="SVGID_00000055684227343219972960000014848382921994170802_" gradientUnits="userSpaceOnUse" x1="953.5451" y1="21.4676" x2="952.8688" y2="21.5991" gradientTransform="matrix(85.5 0 0 103 -80766.2031 -1969.8301)">
		<stop  offset="0" style="stop-color:#9BBFFE"/>
		<stop  offset="1" style="stop-color:#D9EAFF"/>
	</linearGradient>
	<path style="fill-rule:evenodd;clip-rule:evenodd;fill:url(#SVGID_00000055684227343219972960000014848382921994170802_);" d="
		M777.2,195l0.1,37.2L702.5,298l-10.7-1l72.2-64.6v-28.9L777.2,195z"/>
</g>
<g>
	<g>
		<path class="st9" d="M512.8,169.2l6.5,0.6l6.2,1l6,1.4l5.7,1.8l5.4,2.1l5.3,2.6l5,2.8l4.7,3.2l4.4,3.4l4.1,3.8l3.8,4.1l3.4,4.3
			l3.1,4.6l2.7,4.9l2.4,5.1l1.9,5.2l1.5,5.4l1.2,5.7l0.6,5.9l0.3,6.1v120l-0.3,6.1l-0.7,5.9l-1.1,5.7l-1.6,5.5l-2.1,5.4l-2.4,5.2
			l-2.8,4.9l-3.2,4.7l-3.5,4.4l-3.8,4.2l-4.2,3.8l-4.4,3.5l-4.7,3.2l-4.9,2.8l-5.2,2.4l-5.4,2.1l-5.5,1.6l-5.7,1.1l-5.9,0.7
			l-13.6,0.3l-7.2-0.5l-6.4-1.5l-6.1-2l-5.7-2.5l-5.5-3l-5.2-3.5l-4.8-3.8l-4.4-4.3l-4.2-4.7l-3.7-5.1l-3.2-5.3l-2.8-5.6l-2.4-6
			l-1.9-6.1l-1.4-6.3l-0.8-6.5l-0.3-6.8v-120l0.2-6.8l0.6-6.6l1-6.3l1.4-6l1.8-6.1l2.2-5.6l2.6-5.3l3-5l3.4-4.7l3.8-4.3l4.2-3.8
			l4.6-3.5l4.9-3l5.3-2.5l5.9-2l6.4-1.5l3.5-0.5l11.1-0.6L512.8,169.2z M513.5,203.8l-8,0.8l-7.3,2.3l-6.7,3.6l-5.9,4.8l-4.8,5.9
			l-3.6,6.7l-2.3,7.3l-0.8,8v120l0.8,8l1,3.7l3,7.1l4.2,6.3l5.3,5.3l6.3,4.2l3.5,1.7l7.3,2.3l3.9,0.6l4.1,0.2l4.1-0.2l7.6-1.6l7.1-3
			l6.3-4.2l5.3-5.3l2.3-3.1l3.6-6.7l2.3-7.3l0.8-8v-120l-0.8-8l-1-3.7l-3-7.1l-4.2-6.3l-5.3-5.3l-6.3-4.2l-7.1-3l-7.6-1.6
			L513.5,203.8z"/>
	</g>
	
		<linearGradient id="SVGID_00000093888759543158457420000009038040574387691962_" gradientUnits="userSpaceOnUse" x1="958.031" y1="26.4888" x2="957.8757" y2="25.5914" gradientTransform="matrix(147 0 0 267.6 -140304 -6647.4722)">
		<stop  offset="0" style="stop-color:#D9EAFF"/>
		<stop  offset="1" style="stop-color:#9BBFFE"/>
	</linearGradient>
	<path style="fill:url(#SVGID_00000093888759543158457420000009038040574387691962_);" d="M512.8,169.2l6.5,0.6l6.2,1l6,1.4l5.7,1.8
		l5.4,2.1l5.3,2.6l5,2.8l4.7,3.2l4.4,3.4l4.1,3.8l3.8,4.1l3.4,4.3l3.1,4.6l2.7,4.9l2.4,5.1l1.9,5.2l1.5,5.4l1.2,5.7l0.6,5.9l0.3,6.1
		v120l-0.3,6.1l-0.7,5.9l-1.1,5.7l-1.6,5.5l-2.1,5.4l-2.4,5.2l-2.8,4.9l-3.2,4.7l-3.5,4.4l-3.8,4.2l-4.2,3.8l-4.4,3.5l-4.7,3.2
		l-4.9,2.8l-5.2,2.4l-5.4,2.1l-5.5,1.6l-5.7,1.1l-5.9,0.7l-13.6,0.3l-7.2-0.5l-6.4-1.5l-6.1-2l-5.7-2.5l-5.5-3l-5.2-3.5l-4.8-3.8
		l-4.4-4.3l-4.2-4.7l-3.7-5.1l-3.2-5.3l-2.8-5.6l-2.4-6l-1.9-6.1l-1.4-6.3l-0.8-6.5l-0.3-6.8v-120l0.2-6.8l0.6-6.6l1-6.3l1.4-6
		l1.8-6.1l2.2-5.6l2.6-5.3l3-5l3.4-4.7l3.8-4.3l4.2-3.8l4.6-3.5l4.9-3l5.3-2.5l5.9-2l6.4-1.5l3.5-0.5l11.1-0.6L512.8,169.2z
		 M513.5,203.8l-8,0.8l-7.3,2.3l-6.7,3.6l-5.9,4.8l-4.8,5.9l-3.6,6.7l-2.3,7.3l-0.8,8v120l0.8,8l1,3.7l3,7.1l4.2,6.3l5.3,5.3
		l6.3,4.2l3.5,1.7l7.3,2.3l3.9,0.6l4.1,0.2l4.1-0.2l7.6-1.6l7.1-3l6.3-4.2l5.3-5.3l2.3-3.1l3.6-6.7l2.3-7.3l0.8-8v-120l-0.8-8
		l-1-3.7l-3-7.1l-4.2-6.3l-5.3-5.3l-6.3-4.2l-7.1-3l-7.6-1.6L513.5,203.8z"/>
</g>
<linearGradient id="矩形备份-14_00000105391500773230420970000006218861384330072451_" gradientUnits="userSpaceOnUse" x1="957.8116" y1="25.3331" x2="958.0437" y2="26.4592" gradientTransform="matrix(147 0 0 267 -140317 -6629.9141)">
	<stop  offset="0" style="stop-color:#3A5EDF"/>
	<stop  offset="0.5441" style="stop-color:#3A5EDF"/>
	<stop  offset="1" style="stop-color:#B6D5FF"/>
</linearGradient>
<path id="矩形备份-14" style="fill:url(#矩形备份-14_00000105391500773230420970000006218861384330072451_);" d="
	M500.5,169.7l6.1,0.3l5.9,0.7l5.7,1.1l5.5,1.6l5.4,2.1l5.2,2.4l4.9,2.8l4.7,3.2l4.4,3.5l4.2,3.8l3.8,4.2l3.5,4.4l3.2,4.7l2.8,4.9
	l2.4,5.2l2.1,5.4l1.6,5.5l1.1,5.7l0.7,5.9l0.3,6.1v120l-0.3,6.1l-0.7,5.9l-1.1,5.7l-1.6,5.5l-2.1,5.4l-2.4,5.2l-2.8,4.9l-3.2,4.7
	l-3.5,4.4l-3.8,4.2l-4.2,3.8l-4.4,3.5l-4.7,3.2l-4.9,2.8l-5.2,2.4l-5.4,2.1l-5.5,1.6l-5.7,1.1l-5.9,0.7l-6.1,0.3l-6.1-0.3l-5.9-0.7
	l-5.7-1.1l-5.5-1.6l-5.4-2.1l-5.2-2.4l-4.9-2.8l-4.7-3.2l-4.4-3.5l-4.2-3.8l-3.8-4.2l-3.5-4.4l-3.2-4.7l-2.8-4.9l-2.4-5.2l-2.1-5.4
	l-1.6-5.5l-1.1-5.7l-0.7-5.9l-0.3-6.1v-120l0.3-6.1l0.7-5.9l1.1-5.7l1.6-5.5l2.1-5.4l2.4-5.2l2.8-4.9l3.2-4.7l3.5-4.4l3.8-4.2
	l4.2-3.8l4.4-3.5l4.7-3.2l4.9-2.8l5.2-2.4l5.4-2.1l5.5-1.6l5.7-1.1l5.9-0.7L500.5,169.7z M500.5,203.8l-8,0.8l-7.3,2.3l-6.7,3.6
	l-5.9,4.8l-4.8,5.9l-3.6,6.7l-2.3,7.3l-0.8,8v120l0.8,8l1,3.7l3,7.1l4.2,6.3l5.3,5.3l6.3,4.2l3.5,1.7l7.3,2.3l3.9,0.6l4.1,0.2
	l4.1-0.2l7.6-1.6l7.1-3l6.3-4.2l5.3-5.3l2.3-3.1l3.6-6.7l2.3-7.3l0.8-8v-120l-0.8-8l-1-3.7l-3-7.1l-4.2-6.3l-5.3-5.3l-6.3-4.2
	l-7.1-3l-7.6-1.6L500.5,203.8z"/>
<g>
	<g>
		<path class="st2" d="M366.2,238.7l23.1,2.5l-13.3,8.5l-26.4-3.7L366.2,238.7z"/>
	</g>
	
		<linearGradient id="SVGID_00000151507044404512744560000008096865561028917905_" gradientUnits="userSpaceOnUse" x1="940.7177" y1="-39.0656" x2="939.7381" y2="-39.0555" gradientTransform="matrix(39.7 0 0 11 -36957.1914 673.8696)">
		<stop  offset="0" style="stop-color:#D9EAFF"/>
		<stop  offset="1" style="stop-color:#9BBFFE"/>
	</linearGradient>
	<path style="fill-rule:evenodd;clip-rule:evenodd;fill:url(#SVGID_00000151507044404512744560000008096865561028917905_);" d="
		M366.2,238.7l23.1,2.5l-13.3,8.5l-26.4-3.7L366.2,238.7z"/>
</g>
<g>
	<g>
		<path class="st2" d="M333.8,143.2l29.7,3.3l-13.9,8.2l-28.6-4.4L333.8,143.2z"/>
	</g>
	
		<linearGradient id="SVGID_00000061435518832269192670000001757761430644583859_" gradientUnits="userSpaceOnUse" x1="942.3175" y1="-36.1171" x2="941.3379" y2="-36.1075" gradientTransform="matrix(42.5 0 0 11.5 -39685 564.239)">
		<stop  offset="0" style="stop-color:#D9EAFF"/>
		<stop  offset="1" style="stop-color:#9BBFFE"/>
	</linearGradient>
	<path style="fill-rule:evenodd;clip-rule:evenodd;fill:url(#SVGID_00000061435518832269192670000001757761430644583859_);" d="
		M333.8,143.2l29.7,3.3l-13.9,8.2l-28.6-4.4L333.8,143.2z"/>
</g>
<linearGradient id="形状结合_00000062163778230126870130000010397990988866898058_" gradientUnits="userSpaceOnUse" x1="938.9443" y1="8.6715" x2="939.3159" y2="9.5779" gradientTransform="matrix(38 0 0 38 -34849 -166.1738)">
	<stop  offset="0" style="stop-color:#F9DD1E"/>
	<stop  offset="1" style="stop-color:#F1C555"/>
</linearGradient>
<path id="形状结合_00000172408012622245988310000017062920656610239643_" style="fill:none;stroke:url(#形状结合_00000062163778230126870130000010397990988866898058_);stroke-width:6.6087;" d="
	M838,199.7l3.5-0.3l3.1-0.9l3-1.4l2.7-1.9l2.2-2.2l1.9-2.7l1.4-3l0.9-3.1l0.3-3.5l-0.3-3.5l-0.9-3.1l-1.4-3l-1.9-2.7l-2.2-2.2
	l-2.7-1.9l-3-1.4l-3.1-0.9l-3.5-0.3l-3.5,0.3l-3.1,0.9l-3,1.4l-2.7,1.9l-2.2,2.2l-1.9,2.7l-1.4,3l-0.9,3.1l-0.3,3.5l0.3,3.5l0.9,3.1
	l1.4,3l1.9,2.7l2.2,2.2l2.7,1.9l3,1.4l3.1,0.9L838,199.7z M854.1,171.2l-31.8,18.6"/>
<radialGradient id="椭圆形备份-6_00000063598952871732556160000001180973685866643590_" cx="937.5841" cy="8.1315" r="0.6341" gradientTransform="matrix(36 0 0 36 -33333 -258.6523)" gradientUnits="userSpaceOnUse">
	<stop  offset="0" style="stop-color:#BFD7FF"/>
	<stop  offset="1" style="stop-color:#7195FF"/>
</radialGradient>
<path id="椭圆形备份-6" style="fill-rule:evenodd;clip-rule:evenodd;fill:url(#椭圆形备份-6_00000063598952871732556160000001180973685866643590_);" d="
	M443,30.7l-0.3,3.3l-0.8,3l-1.4,2.8l-1.7,2.5l-2.2,2.2l-2.5,1.7l-2.8,1.4l-3,0.8l-3.3,0.3l-3.3-0.3l-3-0.8l-2.8-1.4l-2.5-1.7
	l-2.2-2.2l-1.7-2.5l-1.4-2.8l-0.8-3l-0.3-3.3l0.3-3.3l0.8-3l1.4-2.8l1.7-2.5l2.2-2.2l2.5-1.7l2.8-1.4l3-0.8l3.3-0.3l3.3,0.3l3,0.8
	l2.8,1.4l2.5,1.7l2.2,2.2l1.7,2.5l1.4,2.8l0.8,3L443,30.7z"/>
<linearGradient id="形状结合备份_00000151524420848552174150000002754186710806255775_" gradientUnits="userSpaceOnUse" x1="958.6581" y1="24.8028" x2="958.1956" y2="23.9054" gradientTransform="matrix(158 0 0 166.7 -150717.5 -3672.842)">
	<stop  offset="0" style="stop-color:#D9EAFF"/>
	<stop  offset="1" style="stop-color:#9BBFFE"/>
</linearGradient>
<path id="形状结合备份" style="fill:url(#形状结合备份_00000151524420848552174150000002754186710806255775_);" d="
	M708.8,292.2l14.6,2.7l6.5,1.8l6.1,2.2l5.8,2.7l5.6,3.2l5.2,3.5l4.8,3.9l4.5,4.2l4.2,4.6l3.8,4.8l3.5,5.1l3.2,5.3l5.1,11.3l2.1,5.8
	l3,12.1l0.9,6l0.8,12.3l-0.2,6.7l-0.7,6.4l-1.1,6.1l-1.6,5.9l-2,5.8l-2.4,5.5l-2.8,5.2l-3.2,4.9l-3.6,4.6l-4.1,4.2l-4.4,3.9
	l-4.9,3.5l-5.1,3.1l-5.6,2.7l-6,2.3l-6.6,1.9l-6.5,1.3l-7,0.8l-7.6,0.4l-8.1-0.2l-6.5-0.6l-6-1l-5.7-1.3l-5.2-1.7l-4.9-2l-6-3
	l-5.5-3.4l-5-3.9l-4.5-4.2l-4.2-4.6l-3.8-5l-3.4-5.2l-3-5.5l-4.8-11.7l-1.9-6.1l-1.5-6.4l-1.4-8.5l-0.9-8.6l-0.3-8.6l19.5-2.7
	l0.5,9.3l0.5,4.4l1,4.3l1.5,4.1l3.9,8l6.5,9.1l4.4,5.1l3.8,3.7l4.3,3.5l4.8,3.3l5.1,2.9l5.3,2.5l5.5,2.1l5.7,1.6l5.6,1.1l5.6,0.5
	l6.2,0.1l5.7-0.5l5.3-0.8l4.9-1.3l4.8-1.7l4.4-2.1l3.9-2.5l3.6-2.8l3.2-3.2l2.8-3.5l2.5-3.9l2-4.3l1.6-4.4l1.1-4.8l0.7-5.2l0.3-5.6
	l-0.3-5.5l-0.8-5.3l-1.4-5.2l-1.9-4.9l-2.3-4.8l-2.8-4.5l-3.2-4.3l-3.7-4.1l-4-3.7l-4.3-3.4l-4.7-3l-5.1-2.7l-5.3-2.3l-5.5-1.8
	l-5.8-1.5l-6.2-1l3.5-21l-21.4-8L708.8,292.2z"/>
<linearGradient id="形状结合备份_00000181076210997361154770000010054158597193316256_" gradientUnits="userSpaceOnUse" x1="958.3538" y1="25.369" x2="958.6254" y2="26.495" gradientTransform="matrix(161 0 0 270.2 -153625 -6701.6475)">
	<stop  offset="0" style="stop-color:#3A5EDF"/>
	<stop  offset="0.5441" style="stop-color:#3A5EDF"/>
	<stop  offset="1" style="stop-color:#B6D5FF"/>
</linearGradient>
<path id="形状结合备份_00000120546976676049522270000018195845880880170154_" style="fill-rule:evenodd;clip-rule:evenodd;fill:url(#形状结合备份_00000181076210997361154770000010054158597193316256_);" d="
	M624,188.4l140,15.1v29.7l-72.1,63.5l12.1,0.8l6.3,1.2l6.1,1.7l6,2.2l5.7,2.7l5.5,3.2l5.3,3.6l5,4.1l4.7,4.4l4.4,4.7l4.1,5l3.8,5.4
	l3.4,5.6l3,5.8l2.5,6l2.2,6.2l1.7,6.4l1.3,6.4l0.7,6.5l0.3,6.5l-0.3,6.9l-0.8,6.6l-1.3,6.2l-1.8,6l-2.3,5.8l-2.7,5.5l-3.2,5.2
	l-3.5,4.8l-4,4.6l-4.2,4.1l-4.7,3.8l-4.9,3.4l-5.2,2.9l-5.5,2.5l-5.8,2l-6,1.6l-6.1,1.1l-6.4,0.5h-6.5l-6.8-0.5l-6.6-1.1l-6.3-1.6
	l-6.2-2l-6-2.5l-5.8-2.9l-5.5-3.3l-5.3-3.7l-5-4.1l-4.8-4.4l-4.4-4.7l-4.1-5l-3.8-5.3l-3.4-5.5l-3-5.7l-2.6-6l-2.2-6.1l-1.7-6.3
	l-1.3-6.4l-0.7-6.5l-0.3-6.7h24.9l0.2,4.8l1.5,9.2l1.3,4.5l2.1,5.9l2.8,5.6l3.2,5.3l3.7,5.1l4.1,4.7l4.6,4.3l4.9,3.9l5.2,3.4
	l5.5,2.9l8.8,3.2l9.2,2l5.7,0.4l5.4-0.2l5.2-0.7l4.9-1.2l4.8-1.7l4.4-2.2l4.1-2.6l3.9-3l3.4-3.4l3.1-3.8l2.7-4.2l2.3-4.5l1.8-4.7
	l1.3-5.1l0.8-5.3l0.3-5.8l-0.3-5.7l-0.7-5.5l-1.1-5.4l-1.6-5.2l-2-5.1l-2.4-4.8l-2.9-4.5l-3.2-4.3l-3.6-4l-4-3.6l-4.3-3.3l-4.7-2.9
	l-5-2.4l-5.3-2l-5.6-1.6l-6.2-1l-49.4-2.8v-26.3h0.3l78.3-65.3L624,218.7V188.4z"/>
<g>
	<g>
		<path class="st2" d="M627.9,361.3l22.1,3.4l-10,7.3l-25-3.8L627.9,361.3z"/>
	</g>
	
		<linearGradient id="SVGID_00000152242584813809696990000016381578069839374473_" gradientUnits="userSpaceOnUse" x1="937.4569" y1="-40.9684" x2="936.4772" y2="-40.9563" gradientTransform="matrix(35 0 0 10.7 -32161 804.9515)">
		<stop  offset="0" style="stop-color:#D9EAFF"/>
		<stop  offset="1" style="stop-color:#9BBFFE"/>
	</linearGradient>
	<path style="fill-rule:evenodd;clip-rule:evenodd;fill:url(#SVGID_00000152242584813809696990000016381578069839374473_);" d="
		M627.9,361.3l22.1,3.4l-10,7.3l-25-3.8L627.9,361.3z"/>
</g>
</svg>
